<svg width="30" height="41" viewBox="0 0 30 41" fill="none" xmlns="http://www.w3.org/2000/svg">
<path d="M28.5648 13.2634C28.5217 12.5159 27.9265 11.9332 27.2076 11.9345H21.779V7.69345C21.779 3.78963 18.741 0.625 14.9933 0.625C11.2457 0.625 8.20761 3.78963 8.20761 7.69345V11.9345H2.77903C2.06017 11.9332 1.46498 12.5159 1.42189 13.2634L0.227604 35.7269C0.100202 38.0654 1.81682 40.0688 4.06179 40.2015C4.14076 40.2062 4.2199 40.2085 4.29903 40.2083H25.7012C27.9498 40.2121 29.7755 38.3164 29.7791 35.9741C29.7793 35.8916 29.7771 35.8092 29.7726 35.7269L28.5648 13.2634ZM10.9219 7.69345C10.9219 5.35114 12.7447 3.45238 14.9933 3.45238C17.2419 3.45238 19.0647 5.35114 19.0647 7.69345V11.9345H10.9219V7.69345Z" fill="white"/>
</svg>
